<?xml version="1.0" encoding="UTF-8"?>
<svg version="1.1" xmlns="http://www.w3.org/2000/svg" width="512" height="512">
<path d="M0 0 C7.87482144 6.74984695 7.87482144 6.74984695 10.59932709 9.48745251 C11.53642399 10.42526303 11.53642399 10.42526303 12.49245214 11.38201922 C13.15441926 12.04962765 13.81638637 12.71723608 14.49841309 13.40507507 C15.22068289 14.12931272 15.9429527 14.85355036 16.68710947 15.5997346 C19.09262509 18.01293298 21.49452352 20.42969935 23.89648438 22.84643555 C25.62660476 24.58339084 27.35697836 26.32009396 29.08758545 28.05656433 C32.80850089 31.79078795 36.52800786 35.52640633 40.24650574 39.26303673 C46.13619709 45.18105322 52.03176199 51.09319977 57.92834473 57.00434875 C59.95044822 59.03157602 61.9725265 61.05882842 63.99460602 63.0860796 C64.49989569 63.5926553 65.00518537 64.09923101 65.52578685 64.62115749 C71.26929013 70.37937502 77.01190728 76.13847576 82.75390625 81.89819336 C83.54056064 82.68726987 83.54056064 82.68726987 84.34310704 83.49228732 C92.82739191 92.00306559 101.30602444 100.51945635 109.78301924 109.03749492 C118.50976547 117.80612966 127.24428643 126.56696875 135.98549891 135.32118255 C141.36310739 140.70733869 146.73447681 146.09956309 152.09771591 151.50002829 C156.22075702 155.65045468 160.35445106 159.79014168 164.49198151 163.92611885 C166.17596101 165.61277499 167.85655324 167.30282166 169.53330231 168.99666595 C189.86832176 189.52981278 212.41519486 206.42381476 242 210 C243.1034375 210.1340625 244.206875 210.268125 245.34375 210.40625 C275.69453663 213.25974276 303.3902316 203.12678886 326.65450668 183.94088936 C334.11089851 177.51701284 340.91299273 170.33570939 347.84814453 163.36303711 C349.63093451 161.57804289 351.41417538 159.79349892 353.1978302 158.0093689 C357.01912968 154.18514901 360.83739541 150.35794102 364.6529274 146.52796745 C370.16995669 140.99015508 375.69307142 135.45844371 381.21772991 129.92824358 C390.18436428 120.95238175 399.14689066 111.97243034 408.10644531 102.98950195 C408.64126376 102.45329019 409.17608221 101.91707843 409.72710727 101.36461783 C410.26263458 100.82769499 410.79816189 100.29077216 411.34991729 99.73757893 C418.96463325 92.10304045 426.58035488 84.469507 434.19726562 76.8371582 C435.00305188 76.02973567 435.00305188 76.02973567 435.82511665 75.20600157 C444.76783053 66.24529328 453.71255782 57.28659657 462.65832031 48.32893187 C468.17291093 42.80674143 473.68541242 37.28247997 479.19524674 31.75554378 C483.40475748 27.53314557 487.61666429 23.31314348 491.82945824 19.09402084 C493.56181974 17.35817244 495.29330824 15.62145231 497.02388573 13.8838253 C499.37443021 11.52391187 501.72796794 9.16702581 504.08230591 6.81089783 C504.77615139 6.11277526 505.46999687 5.4146527 506.18486798 4.69537491 C506.81056994 4.0704306 507.4362719 3.44548629 508.08093452 2.80160427 C508.8961733 1.98416969 508.8961733 1.98416969 509.72788155 1.15022129 C511 0 511 0 512 0 C512 123.42 512 246.84 512 374 C343.04 374 174.08 374 0 374 C0 250.58 0 127.16 0 0 Z " fill="currentColor" transform="translate(0,117)"/>
<path d="M0 0 C1.0226318 -0.00307895 1.0226318 -0.00307895 2.06592283 -0.0062201 C4.34908892 -0.01187196 6.63219434 -0.0104351 8.91536617 -0.00901413 C10.56944995 -0.01159881 12.2235331 -0.01461226 13.87761539 -0.01801753 C18.42239712 -0.02607878 22.96716305 -0.02787662 27.51195109 -0.028615 C32.41398486 -0.03046709 37.31601047 -0.03801526 42.21803951 -0.04475021 C52.93722237 -0.05832818 63.65640149 -0.06435752 74.37559152 -0.06876087 C81.07041932 -0.07152439 87.76524569 -0.07576196 94.46007252 -0.08026505 C113.00069653 -0.09245737 131.54131939 -0.10275652 150.08194733 -0.10614014 C151.26844602 -0.1063597 152.45494471 -0.10657927 153.6773979 -0.10680549 C154.86671742 -0.10702377 156.05603694 -0.10724204 157.28139645 -0.10746694 C159.69136369 -0.1079104 162.10133094 -0.10835696 164.51129818 -0.10880661 C165.70672227 -0.10902804 166.90214637 -0.10924947 168.13379543 -0.10947761 C187.49836229 -0.11342454 206.8628915 -0.13087552 226.22744382 -0.15416613 C246.11478628 -0.17789218 266.00210986 -0.19034257 285.8894667 -0.19150805 C297.05299298 -0.19242415 308.2164702 -0.19815986 319.37998295 -0.21632767 C328.88722681 -0.2317456 338.39440646 -0.23683914 347.90166045 -0.22858956 C352.74982399 -0.22468898 357.59785827 -0.22558374 362.44600582 -0.23964691 C366.89062108 -0.25242127 371.33501043 -0.25115739 375.77962553 -0.2390562 C377.38128412 -0.23710531 378.98295892 -0.24014933 380.58459479 -0.24890056 C399.62121221 -0.34626888 416.04144059 3.64312575 430.03034115 17.08259964 C431.37523834 18.417199 432.69839344 19.77360793 434.0198431 21.13142776 C434.63601498 21.75017776 435.25218685 22.36892776 435.8870306 23.00642776 C440.14073915 27.59073543 443.92600588 33.237998 446.0198431 39.13142776 C444.80523357 42.35458404 442.94235595 44.46223078 440.53320599 46.88092041 C439.8063446 47.61546408 439.07948322 48.35000776 438.33059573 49.10681033 C437.52887195 49.90680115 436.72714817 50.70679197 435.90112972 51.53102493 C435.0517528 52.3863441 434.20237587 53.24166327 433.32726026 54.1229012 C430.96810113 56.49641806 428.60451609 58.86536379 426.23891068 61.23244572 C423.68842551 63.78663456 421.14365248 66.34650415 418.59805965 68.90556717 C413.02861634 74.50217451 407.45162481 80.09121926 401.87298775 85.67866039 C398.3865886 89.17058796 394.90166585 92.66398638 391.41700649 96.15764999 C381.76129346 105.83775394 372.10368403 115.51595705 362.43915081 125.18725586 C361.82054456 125.80630124 361.20193831 126.42534662 360.56458642 127.06315096 C359.94451997 127.68365396 359.32445352 128.30415696 358.68559718 128.94346309 C357.42917085 130.20077634 356.17274762 131.4580927 354.91632748 132.71541214 C354.29310172 133.33908075 353.66987597 133.96274936 353.02776459 134.60531703 C342.94504746 144.69591858 332.87589571 154.79994053 322.81257555 164.90988311 C312.47058273 175.29939972 302.11728055 185.67753442 291.75266194 196.04448056 C285.93773471 201.86123653 280.12767876 207.68267514 274.33007717 213.51670456 C269.38945634 218.48825912 264.43850838 223.4492397 259.47417983 228.39712569 C256.94533672 230.91820031 254.42142223 233.4437075 251.91063976 235.98278046 C235.3300781 252.73909033 219.50500276 265.87966964 194.7073431 266.44392776 C170.27034727 266.18615355 154.68556039 253.98050991 138.03470516 237.26654434 C137.18903268 236.42172628 136.3433602 235.57690823 135.47206128 234.70648962 C133.15552234 232.39130028 130.84121079 230.07391237 128.52787399 227.75552428 C126.02133401 225.24462811 123.51186563 222.73666147 121.00276852 220.22832108 C116.66600291 215.89207746 112.33105842 211.55402031 107.99737835 207.21469307 C101.73175635 200.94091176 95.46334422 194.6699242 89.194268 188.39959473 C79.02088544 178.22402859 68.84973371 168.04623564 58.67999935 157.86702347 C48.80650306 147.98433507 38.93194727 138.10270726 29.05597591 128.22249222 C28.44626906 127.61252264 27.8365622 127.00255305 27.20837937 126.37409955 C24.14936836 123.31378341 21.09033662 120.25348798 18.03129458 117.19320285 C-7.3090691 91.84248817 -32.64580631 66.48815159 -57.9801569 41.13142776 C-53.0686057 25.92302475 -41.90703814 14.71513973 -28.2614069 6.78767776 C-19.18142112 2.20444685 -10.1513165 0.0104415 0 0 Z " fill="currentColor" transform="translate(61.980156898498535,20.868572235107422)"/>
</svg>
