<?xml version="1.0" encoding="UTF-8"?>
<svg version="1.1" xmlns="http://www.w3.org/2000/svg" width="512" height="512">
<path d="M0 0 C0.83789062 0.33902344 1.67578125 0.67804687 2.5390625 1.02734375 C9.5330075 4.14686525 15.35313279 8.87010578 21.28369141 13.62646484 C23.57148917 15.45735392 25.87977789 17.26147577 28.1875 19.06713867 C31.13021249 21.37146975 34.06440672 23.6866115 37 26 C44.6481782 32.02396237 52.31208177 38.0268049 60 44 C68.24677811 50.40740616 76.46318069 56.85244615 84.66796875 63.31347656 C91.76135426 68.89807086 98.87092994 74.46100685 106 80 C113.10432892 85.5197703 120.18894506 91.06369275 127.25732422 96.62939453 C129.15039699 98.11828646 131.04570549 99.60429949 132.94140625 101.08984375 C133.58883789 101.59749268 134.23626953 102.1051416 134.90332031 102.62817383 C136.1509856 103.60636256 137.39901699 104.58408455 138.64746094 105.5612793 C142.88777478 108.88777478 142.88777478 108.88777478 144 110 C144.33 86.24 144.66 62.48 145 38 C159.52 38 174.04 38 189 38 C188.94650391 41.20879883 188.89300781 44.41759766 188.83789062 47.72363281 C188.67240535 58.35645117 188.59575303 68.98859656 188.56215668 79.62260818 C188.53909316 86.06716617 188.48665136 92.5086249 188.36572266 98.95214844 C188.24998803 105.17768972 188.21318666 111.39927123 188.2297821 117.62581635 C188.22247834 119.99415972 188.18731312 122.36259505 188.12312317 124.73007965 C187.3837951 137.01477262 187.3837951 137.01477262 191.56628418 148.14604187 C195.29552222 151.82255632 199.48658181 154.43445437 204.07879639 156.90142059 C216.64775227 164.08857973 225.49188156 178.26414018 229.55225933 191.84749693 C231.20707113 198.51885978 231.27442548 204.96608095 231.24050903 211.81312561 C231.24307231 213.71738686 231.24307231 213.71738686 231.24568737 215.66011804 C231.25013628 219.16291657 231.24219126 222.66559161 231.23213124 226.16837442 C231.22346342 229.95352748 231.22641925 233.73867403 231.22793579 237.52383423 C231.22898254 244.07494305 231.22272793 250.6260119 231.21146011 257.17711067 C231.19517955 266.64879772 231.18999449 276.12046552 231.18748413 285.59216505 C231.18311104 300.96078699 231.1698124 316.32938765 231.15087891 331.69799805 C231.13251012 346.62377823 231.11838145 361.5495526 231.10986328 376.4753418 C231.10932729 377.40533825 231.10879129 378.33533471 231.10823905 379.29351288 C231.10408001 386.56711044 231.10016623 393.84070812 231.09632993 401.11430585 C231.07747564 436.7428901 231.03723593 472.37142106 231 508 C174.57 508 118.14 508 60 508 C59.97421875 493.92988281 59.9484375 479.85976563 59.921875 465.36328125 C59.8967059 456.44464757 59.87053506 447.52603543 59.83984375 438.60742188 C59.79132535 424.45434727 59.74687312 410.30134429 59.72900391 396.14819336 C59.71596984 385.83960039 59.68896029 375.53115336 59.64538693 365.2226426 C59.62281173 359.76774795 59.60708696 354.31303305 59.60811615 348.85808754 C59.60886508 343.71571994 59.59082068 338.5737491 59.55883217 333.43148422 C59.55036662 331.55188369 59.5485603 329.67223848 59.55419731 327.79262733 C59.5897919 314.09078374 58.77567653 302.21799635 50.26953125 290.8046875 C49 289 49 289 48 286 C46.15762607 284.94299026 46.15762607 284.94299026 44 284 C41.91171387 282.54144996 39.85443903 281.04733143 37.8046875 279.53515625 C30.52306305 275.54953173 23.06128472 274.55408553 14.87548828 274.59594727 C13.91794647 274.58908401 12.96040466 274.58222076 11.97384644 274.57514954 C8.83918007 274.55699449 5.70501966 274.56070319 2.5703125 274.56640625 C0.37132609 274.5618388 -1.8276589 274.55653156 -4.02664185 274.55052185 C-8.62442847 274.54161269 -13.2220412 274.54398861 -17.81982422 274.55395508 C-23.68591082 274.56543728 -29.55139477 274.54523295 -35.41740227 274.51603794 C-39.95585894 274.4976126 -44.4941729 274.4979811 -49.03265762 274.50367546 C-51.19421356 274.50382792 -53.35577963 274.4978462 -55.51729965 274.48538399 C-71.3144994 274.40713013 -84.52792991 275.13435039 -97 286 C-105.7320429 294.88557333 -109.1424229 306.936846 -109.15821838 319.08015442 C-109.16315636 319.88888636 -109.16809434 320.6976183 -109.17318195 321.53085726 C-109.18852654 324.23777326 -109.19690934 326.94466558 -109.20532227 329.65161133 C-109.21490318 331.59321297 -109.22491338 333.53481253 -109.23532104 335.47640991 C-109.26235306 340.74659362 -109.28337188 346.01678626 -109.30332303 351.28700089 C-109.32519306 356.79500345 -109.35257678 362.3029785 -109.37937927 367.81095886 C-109.42929238 378.24077967 -109.47423636 388.67061575 -109.51740164 399.10046643 C-109.57601845 413.19455979 -109.64229793 427.28861697 -109.70815182 441.38267803 C-109.8117049 463.58842764 -109.90500845 485.79420829 -110 508 C-166.43 508 -222.86 508 -281 508 C-281.12099405 430.89990437 -281.12099405 430.89990437 -281.14648438 398.69726562 C-281.15235781 391.32657857 -281.15841921 383.95589171 -281.16479492 376.58520508 C-281.16558617 375.6614354 -281.16637741 374.73766573 -281.16719264 373.78590304 C-281.18023335 358.88085345 -281.20388084 343.97583866 -281.23145839 329.07080968 C-281.25953304 313.76926082 -281.27618062 298.46773015 -281.28226548 283.16615659 C-281.28637765 273.7275915 -281.29935618 264.28912473 -281.3237494 254.85058991 C-281.33963201 248.37439895 -281.34439464 241.89825867 -281.34050413 235.42204966 C-281.33858651 231.68805321 -281.34148413 227.95422832 -281.35761642 224.22026253 C-281.37500982 220.16460869 -281.36894141 216.10931749 -281.36076355 212.05363464 C-281.36950207 210.88337288 -281.3782406 209.71311111 -281.38724393 208.50738686 C-281.29907213 192.29540764 -275.0002135 176.04749601 -263.59765625 164.3515625 C-258.88159974 160.08229029 -253.88616637 156.21063996 -248.81298828 152.37792969 C-245.92867606 150.18575918 -243.09197003 147.93409556 -240.25 145.6875 C-234.07702783 140.83072659 -227.87559926 136.01078604 -221.67285156 131.19213867 C-217.10448985 127.64161106 -212.54583587 124.07931469 -208 120.5 C-202.68238137 116.31299655 -197.34484789 112.15218198 -192 108 C-184.31203286 102.02685416 -176.64878722 96.02319602 -169 90 C-160.5823096 83.37131523 -152.14239362 76.77238628 -143.68164062 70.19873047 C-136.76763784 64.82461108 -129.87987433 59.41769964 -123 54 C-114.58024474 47.36968921 -106.1391641 40.76795734 -97.67504883 34.19433594 C-93.64670526 31.06417806 -89.62573607 27.92538665 -85.62133789 24.76464844 C-83.93592879 23.43626162 -82.24564645 22.11428072 -80.5546875 20.79296875 C-77.97762753 18.7776875 -75.42763726 16.73157964 -72.8828125 14.67578125 C-52.19486483 -1.84166424 -25.81306671 -11.46826864 0 0 Z " fill="#000000" transform="translate(281,4)"/>
</svg>
