<?xml version="1.0" encoding="UTF-8"?>
<svg version="1.1" xmlns="http://www.w3.org/2000/svg" width="512" height="512">
<path d="M0 0 C168.96 0 337.92 0 512 0 C512.12375 71.713125 512.12375 71.713125 512.25 144.875 C512.28641602 159.95558105 512.32283203 175.03616211 512.36035156 190.57373047 C512.37841797 209.02758789 512.37841797 209.02758789 512.3817749 217.67410278 C512.38549265 223.69670917 512.40011245 229.71916574 512.42230225 235.74172974 C512.44790209 242.7002011 512.45931171 249.65852967 512.4537798 256.61704839 C512.45138712 260.17084196 512.45497465 263.72431709 512.47686052 267.27805114 C512.66209819 302.51562337 503.91943453 329.9215285 479.48828125 355.64453125 C454.53062114 379.91423135 423.75727342 384.63658099 390.44458103 384.52289867 C386.46902887 384.51374892 382.49354367 384.52786645 378.51800537 384.53881836 C370.75391402 384.55650357 362.98997828 384.55280856 355.2258811 384.5411678 C348.90970946 384.53209406 342.59358109 384.5309264 336.27740479 384.53526306 C334.9233808 384.53618246 334.9233808 384.53618246 333.5420028 384.53712043 C331.70759756 384.53839947 329.87319234 384.53969633 328.03878713 384.5410108 C310.88142618 384.5523873 293.72415104 384.53934905 276.56680417 384.51780933 C261.87977964 384.49994102 247.19288162 384.50304596 232.50585938 384.52148438 C215.4053305 384.54294304 198.30487663 384.55128894 181.20433617 384.53903532 C179.37708919 384.53776127 177.54984221 384.53650378 175.72259521 384.53526306 C174.82380964 384.53464596 173.92502407 384.53402886 172.99900258 384.53339306 C166.6983929 384.52995511 160.39783124 384.53573474 154.097229 384.54518127 C146.40745741 384.55645837 138.7178489 384.55324222 131.02809572 384.5320583 C127.11283436 384.52162405 123.19784383 384.51729376 119.28258514 384.53065491 C83.03695574 384.64390608 54.95609117 376.75297876 28.35546875 351.48828125 C4.95755773 327.42712235 -0.66321543 297.5375657 -0.46429092 265.23705205 C-0.44659758 261.61620537 -0.45268405 257.99537653 -0.45556259 254.37449837 C-0.45767384 247.37232676 -0.43935618 240.37036333 -0.41355728 233.36824495 C-0.3845681 225.25467294 -0.38156802 217.14122298 -0.37841797 209.02758789 C-0.35748272 187.64335933 -0.3016377 166.25917646 -0.25 144.875 C-0.1675 97.06625 -0.085 49.2575 0 0 Z M264.72265625 59.52734375 C257.25207833 70.25041817 255.9566964 81.28604528 257 94 C259.00266383 104.37048212 265.39876564 113.66398424 273.8125 119.9375 C284.50441914 126.77573663 295.43802184 129.21912914 307.875 126.85546875 C316.08202857 124.60879468 324.26588478 120.40706762 330 114 C330.24669434 113.43031494 330.49338867 112.86062988 330.74755859 112.27368164 C331.93540498 109.8940596 332.86019581 108.61372191 335 107 C339.53282319 106.12266842 343.96232423 106.12000222 348.5546875 106.25219727 C350.73089135 106.31197511 352.90122247 106.313795 355.078125 106.30664062 C363.21125761 106.36441388 371.27461613 106.64370633 377.5690918 112.4465332 C381.65154073 117.08107782 383.24285102 120.70829236 383.30107117 126.82478333 C383.31682693 128.01497574 383.3325827 129.20516815 383.34881592 130.431427 C383.35576477 131.73385345 383.36271362 133.03627991 383.36987305 134.37817383 C383.38404632 135.76641078 383.39896263 137.15464032 383.41456604 138.54286194 C383.46173251 143.09752216 383.48748323 147.65220054 383.51171875 152.20703125 C383.52112907 153.77694943 383.53062354 155.34686711 383.54020119 156.91678429 C383.57868152 163.44761178 383.61189521 169.97842648 383.63057232 176.50934315 C383.65738258 185.8604728 383.71495636 195.21021924 383.81633729 204.56084806 C383.88523596 211.14103115 383.91954067 217.72084681 383.92813712 224.30138224 C383.93413599 228.22963599 383.95504723 232.15646563 384.01270103 236.08432961 C384.06614364 239.78103089 384.07658475 243.47541682 384.05455589 247.17241478 C384.05350087 249.16915143 384.09701007 251.16575725 384.14199829 253.1619873 C384.03198179 261.80232995 384.03198179 261.80232995 381.00675392 265.31326866 C378.74697324 267.06956053 376.44919081 268.52743197 374 270 C368.94962263 275.59821491 365.82398573 281.71864898 364 289 C363.773125 289.825 363.54625 290.65 363.3125 291.5 C361.77640807 303.78873544 364.6289401 315.00386924 372 325 C380.04650072 334.92007319 390.81096051 339.77527405 403.33984375 341.28125 C415.56013677 341.8116063 426.34522005 337.01882828 435.2890625 328.9296875 C444.91571325 318.87037829 447.50937982 307.82046253 447.27734375 294.34375 C446.82294039 283.90829776 441.99404549 275.89298555 434.68359375 268.73046875 C430.88193976 264.67612757 430.88193976 264.67612757 426 263 C426.00553076 261.90753417 426.00553076 261.90753417 426.01117325 260.79299831 C426.09978846 243.01250111 426.16583748 225.23204839 426.20724869 207.45137691 C426.22781084 198.85251333 426.25580888 190.2537978 426.30175781 181.6550293 C426.34182121 174.15404276 426.36747885 166.65316354 426.37635398 159.15207297 C426.38153599 155.18596794 426.39358038 151.22016972 426.42292023 147.25416374 C426.45039902 143.50880447 426.4583808 139.7638736 426.45243073 136.01842308 C426.45402812 134.01380269 426.4753788 132.0092272 426.49768066 130.00473022 C426.41558109 111.6060809 420.20295248 95.84397065 407.45214844 82.40478516 C390.57335548 66.076511 370.64680272 63.79714262 348.375 63.9375 C346.97526203 63.94252803 345.5755223 63.94708862 344.17578125 63.95117188 C340.78380831 63.96286833 337.39192767 63.97925914 334 64 C333.69835937 63.21230225 333.39671875 62.42460449 333.0859375 61.61303711 C329.97264931 54.1216874 322.0338142 49.39350685 315 46 C296.4399504 38.94718115 277.44057168 44.30240597 264.72265625 59.52734375 Z M68.75 72.5 C64.49490032 78.57871384 64.26414685 83.66033658 65 91 C66.76099684 97.70962086 71.16967622 101.54011587 77 105 C79.89328091 105.96442697 81.73995627 106.1320378 84.748703 106.14717102 C85.72572174 106.15432632 86.70274048 106.16148163 87.70936584 106.16885376 C88.78004807 106.17154266 89.85073029 106.17423157 90.95385742 106.17700195 C92.08261292 106.18357315 93.21136841 106.19014435 94.37432861 106.19691467 C98.11804264 106.21666062 101.86171652 106.2283136 105.60546875 106.23828125 C106.88354212 106.24235678 108.16161549 106.2464323 109.47841835 106.25063133 C115.54607408 106.26934608 121.61370547 106.28390993 127.68138236 106.2922433 C134.673608 106.30200612 141.66551627 106.32830163 148.65763015 106.36874419 C154.72260219 106.4026137 160.78744147 106.41439418 166.85250282 106.41844749 C169.42766788 106.42331748 172.00282945 106.43494307 174.57793236 106.45348549 C178.18526792 106.4778447 181.79177721 106.47691709 185.39916992 106.4699707 C186.45973099 106.48278076 187.52029205 106.49559082 188.61299133 106.50878906 C196.00490861 106.45700095 201.23239795 105.18573301 207.0234375 100.2890625 C211.72161187 94.50460503 213.65551896 89.60401991 213 82 C211.81633407 75.60563077 208.43619549 71.97979878 203.7421875 67.6640625 C196.9767518 63.55854169 188.98098059 63.70859787 181.28295898 63.74121094 C179.73481506 63.73595398 179.73481506 63.73595398 178.15539551 63.73059082 C174.76889168 63.72184134 171.38259944 63.72759824 167.99609375 63.734375 C165.62915507 63.73302651 163.26221666 63.73108444 160.89527893 63.72857666 C155.94521435 63.72563467 150.99522216 63.72989369 146.04516602 63.73925781 C139.71136693 63.75065796 133.37773725 63.74408333 127.04394436 63.73211288 C122.15996532 63.72487467 117.27602624 63.72719114 112.39204597 63.73236847 C110.05693606 63.73369921 107.72182247 63.73207749 105.38671684 63.72740936 C102.12026272 63.72231123 98.85408044 63.7301004 95.58764648 63.74121094 C94.63001907 63.73716248 93.67239166 63.73311401 92.68574524 63.72894287 C83.24633795 63.78820439 75.37602897 65.13774559 68.75 72.5 Z M135.50390625 176.15625 C134.86324219 176.9296875 134.22257813 177.703125 133.5625 178.5 C132.90378906 179.2734375 132.24507812 180.046875 131.56640625 180.84375 C127.89812062 185.89336014 128.45694042 192.02634465 129 198 C130.69462517 203.57388762 135.17255026 207.91844612 140 211 C144.33495986 212.69865605 147.94655509 213.25229385 152.59005737 213.26069641 C153.89935211 213.26778122 155.20864685 213.27486603 156.55761719 213.28216553 C157.99658238 213.27987201 159.43554724 213.27736235 160.87451172 213.2746582 C162.39934539 213.27900839 163.92417687 213.28419256 165.44900513 213.29014587 C169.58131132 213.30351481 173.71352592 213.30411684 177.84584951 213.30158257 C181.30001023 213.30051134 184.75415253 213.30540019 188.20830929 213.310188 C196.36007833 213.32127611 204.51180129 213.32172464 212.66357422 213.31567383 C221.06260413 213.30963516 229.46146647 213.3219439 237.86046779 213.3432439 C245.08104705 213.36087955 252.30157306 213.36685812 259.52217305 213.36360615 C263.83049078 213.36179613 268.13868899 213.36440129 272.44698715 213.37832069 C276.50017077 213.39092627 280.55309388 213.38892927 284.60627365 213.37590981 C286.08969716 213.37355032 287.57313915 213.37625612 289.05654144 213.38453293 C301.6710105 213.61325452 301.6710105 213.61325452 312.49609375 207.84375 C313.13675781 207.0703125 313.77742187 206.296875 314.4375 205.5 C315.09621094 204.7265625 315.75492188 203.953125 316.43359375 203.15625 C320.10187938 198.10663986 319.54305958 191.97365535 319 186 C317.30537483 180.42611238 312.82744974 176.08155388 308 173 C303.66504014 171.30134395 300.05344491 170.74770615 295.40994263 170.73930359 C294.10064789 170.73221878 292.79135315 170.72513397 291.44238281 170.71783447 C290.00341762 170.72012799 288.56445276 170.72263765 287.12548828 170.7253418 C285.60065461 170.72099161 284.07582313 170.71580744 282.55099487 170.70985413 C278.41868868 170.69648519 274.28647408 170.69588316 270.15415049 170.69841743 C266.69998977 170.69948866 263.24584747 170.69459981 259.79169071 170.689812 C251.63992167 170.67872389 243.48819871 170.67827536 235.33642578 170.68432617 C226.93739587 170.69036484 218.53853353 170.6780561 210.13953221 170.6567561 C202.91895295 170.63912045 195.69842694 170.63314188 188.47782695 170.63639385 C184.16950922 170.63820387 179.86131101 170.63559871 175.55301285 170.62167931 C171.49982923 170.60907373 167.44690612 170.61107073 163.39372635 170.62409019 C161.91030284 170.62644968 160.42686085 170.62374388 158.94345856 170.61546707 C146.3289895 170.38674548 146.3289895 170.38674548 135.50390625 176.15625 Z M69.94140625 284.03515625 C69.48636719 284.70417969 69.03132813 285.37320312 68.5625 286.0625 C68.08941406 286.73410156 67.61632812 287.40570313 67.12890625 288.09765625 C64.05711699 293.27399317 64.34384569 299.18308142 65 305 C67.34216329 311.03520084 71.48563355 314.84603347 76.9375 318.1875 C82.34833756 320.31904207 88.07166822 320.1446528 93.79196167 320.13371277 C95.10200501 320.1371111 95.10200501 320.1371111 96.43851388 320.14057809 C99.3585996 320.14689713 102.27863867 320.14609007 105.19873047 320.14526367 C107.29498352 320.14825645 109.39123602 320.15165925 111.48748779 320.15544128 C117.17757377 320.16427291 122.86764471 320.16661903 128.55773687 320.16725707 C132.11339442 320.16796799 135.66904815 320.1701031 139.22470474 320.17275429 C151.63108818 320.18200458 164.03746088 320.18608952 176.44384766 320.18530273 C188.00566297 320.18470186 199.56743164 320.19525645 211.12923515 320.2110464 C221.05891288 320.22412379 230.98857537 320.22948655 240.91826165 320.22884732 C246.84739899 320.22859242 252.77649487 320.23143971 258.70562363 320.24202538 C264.28210513 320.25170978 269.85850556 320.25178314 275.43498993 320.24450874 C277.47958367 320.24346337 279.52418248 320.24582299 281.56876755 320.2518692 C284.3639638 320.25959863 287.1588807 320.25493797 289.95407104 320.24723816 C290.75933853 320.25238172 291.56460602 320.25752529 292.39427555 320.26282471 C300.17073903 320.21562456 306.74731045 318.97373033 313 314 C318.3038105 308.10687722 319.47660732 303.8900676 319.3046875 296.0390625 C318.75918767 290.59805141 317.09353468 286.92504094 313.05859375 283.21484375 C307.11681732 278.58616709 302.66292846 277.85122189 295.18916321 277.85282898 C294.27752873 277.84915229 293.36589425 277.8454756 292.42663449 277.8416875 C289.359043 277.8306375 286.29148538 277.82680458 283.22387695 277.82299805 C281.029545 277.81673439 278.83521412 277.81008767 276.6408844 277.80308533 C270.66964464 277.78566652 264.69841289 277.77512113 258.72715402 277.7668798 C254.99747023 277.76173143 251.26778894 277.75565562 247.53810692 277.74936867 C236.54099642 277.73140731 225.54389053 277.71702897 214.54676796 277.70919226 C212.53451522 277.70775379 210.52226249 277.70630241 208.51000977 277.70483398 C207.84390704 277.70435024 207.17780432 277.7038665 206.49151667 277.7033681 C195.70442612 277.69507025 184.91744655 277.66973733 174.13040445 277.63725331 C163.05163079 277.60416322 151.97290331 277.58650202 140.89407891 277.58297569 C134.67532234 277.5806238 128.45674117 277.57164505 122.23803139 277.54651451 C116.38657019 277.52325045 110.53540009 277.51899404 104.68390465 277.52927589 C102.5377137 277.52977177 100.3915085 277.52343625 98.24536133 277.50971985 C95.31181051 277.49202202 92.37930673 277.4990971 89.445755 277.51225281 C88.17642001 277.49579894 88.17642001 277.49579894 86.88144189 277.47901267 C80.22036507 277.55096753 74.7530183 279.27832536 69.94140625 284.03515625 Z " fill="#000000" transform="translate(0,128)"/>
<path d="M0 0 C3.97555216 0.00914976 7.95103737 -0.00496778 11.92657566 -0.01591969 C19.69066702 -0.0336049 27.45460275 -0.02990988 35.21869993 -0.01826912 C41.53487158 -0.00919539 47.85099994 -0.00802773 54.16717625 -0.01236439 C55.0698589 -0.01297732 55.97254156 -0.01359025 56.90257823 -0.01422176 C58.73698347 -0.0155008 60.57138869 -0.01679766 62.40579391 -0.01811212 C79.56315486 -0.02948863 96.72042999 -0.01645037 113.87777686 0.00508934 C128.56480139 0.02295765 143.25169941 0.01985271 157.93872166 0.0014143 C175.03925053 -0.02004437 192.1397044 -0.02839027 209.24024487 -0.01613665 C211.06749184 -0.0148626 212.89473882 -0.01360511 214.72198582 -0.01236439 C216.07016417 -0.01143873 216.07016417 -0.01143873 217.44557846 -0.01049438 C223.74618813 -0.00705644 230.04674979 -0.01283607 236.34735203 -0.0222826 C244.03712363 -0.0335597 251.72673214 -0.03034354 259.41648531 -0.00915962 C263.33174667 0.00127462 267.2467372 0.00560491 271.16199589 -0.00775623 C301.73904794 -0.10326944 328.23657831 4.07868436 352.44458103 24.52289867 C353.25669041 25.20094555 354.06879978 25.87899242 354.90551853 26.57758617 C371.52815845 40.94977638 383.13725231 60.19484279 388.44458103 81.52289867 C388.44458103 83.17289867 388.44458103 84.82289867 388.44458103 86.52289867 C220.80458103 86.52289867 53.16458103 86.52289867 -119.55541897 86.52289867 C-118.85769044 80.24334195 -118.20888153 75.51592651 -115.99291897 69.83539867 C-115.73115871 69.15404858 -115.46939846 68.47269848 -115.19970608 67.77070141 C-110.9320291 57.05993665 -105.05716465 47.28826462 -97.55541897 38.52289867 C-96.54028225 37.3086018 -96.54028225 37.3086018 -95.50463772 36.06977367 C-70.09040065 6.63801067 -37.16014689 -0.12681207 0 0 Z " fill="#000000" transform="translate(121.55541896820068,-0.5228986740112305)"/>
</svg>
