<?xml version="1.0" encoding="UTF-8"?>
<svg version="1.1" xmlns="http://www.w3.org/2000/svg" width="512" height="512">
<path d="M0 0 C2.21834298 0.00084715 4.4366868 0.00036941 6.6550293 -0.00132751 C12.65219497 -0.00218545 18.64917928 0.01540777 24.64630294 0.03639436 C30.92299073 0.05519474 37.19968305 0.05691425 43.47639465 0.06047058 C54.00333569 0.06872447 64.5302209 0.08744138 75.05712891 0.11425781 C85.89501624 0.14183755 96.73288546 0.16301747 107.57080078 0.17578125 C108.58478609 0.17698724 108.58478609 0.17698724 109.61925596 0.17821759 C115.50033115 0.18515708 121.38140685 0.19161503 127.26248264 0.1980257 C152.54069199 0.22620339 177.81872576 0.28597963 203.09692383 0.34057617 C203.09692383 49.51057617 203.09692383 98.68057617 203.09692383 149.34057617 C252.59692383 149.34057617 302.09692383 149.34057617 353.09692383 149.34057617 C353.09692383 269.13057617 353.09692383 388.92057617 353.09692383 512.34057617 C211.85692383 512.34057617 70.61692383 512.34057617 -74.90307617 512.34057617 C-75.02407022 398.72268459 -75.02407022 398.72268459 -75.04956055 351.28588867 C-75.05506029 341.1191241 -75.06068292 330.95235961 -75.06665415 320.7855953 C-75.06746368 319.40663795 -75.06826879 318.0276806 -75.06906944 316.64872324 C-75.0818608 294.68104432 -75.10436526 272.71338863 -75.13196783 250.74572374 C-75.16109835 227.51975432 -75.17907046 204.29379869 -75.18534166 181.0678097 C-75.18945592 167.15950445 -75.20244594 153.25126585 -75.22682557 139.34298111 C-75.24269562 129.80276017 -75.24747364 120.26257363 -75.2435803 110.72234045 C-75.24166075 105.21993635 -75.24458275 99.71764863 -75.2606926 94.21526527 C-75.27535159 89.1714518 -75.27598971 84.12783236 -75.26577286 79.08400972 C-75.26451115 77.26546458 -75.26826562 75.44690704 -75.27772572 73.62838607 C-75.34332884 60.23154094 -74.70203679 47.2030891 -68.27807617 35.09057617 C-67.93325195 34.42292236 -67.58842773 33.75526855 -67.2331543 33.06738281 C-63.96624507 27.00204618 -59.88281359 22.09918848 -54.90307617 17.34057617 C-54.29077148 16.70893555 -53.6784668 16.07729492 -53.04760742 15.42651367 C-47.35053624 9.91165159 -40.24325609 6.22530387 -32.90307617 3.34057617 C-31.90677453 2.94537293 -31.90677453 2.94537293 -30.89034557 2.54218578 C-20.87525908 -0.7644458 -10.41370879 -0.05576141 0 0 Z M53.09692383 122.34057617 C50.73747874 125.52582704 48.8457446 128.78688269 47.09692383 132.34057617 C46.75661133 133.0134668 46.41629883 133.68635742 46.06567383 134.37963867 C42.40265203 143.16410761 42.68606647 155.21132409 45.59692383 164.21557617 C50.43946237 175.35680122 57.82209141 183.5187256 68.86254883 188.61791992 C79.84822396 192.92933712 90.10100556 193.45175131 101.24926758 189.11401367 C111.97319163 184.0563244 120.44721572 177.09417296 125.09692383 165.94213867 C125.85226409 163.75600963 126.50715031 161.57643397 127.09692383 159.34057617 C127.32379883 158.51557617 127.55067383 157.69057617 127.78442383 156.84057617 C129.31850779 144.56790449 126.48813332 133.30776528 119.09692383 123.34057617 C112.10431548 114.58026146 102.14360602 109.12229911 91.09692383 107.34057617 C76.38828732 105.98095431 63.05203314 111.62961597 53.09692383 122.34057617 Z M21.62426758 228.49682617 C9.56363699 243.05595056 11.09692383 258.55232515 11.09692383 277.34057617 C24.95692383 277.34057617 38.81692383 277.34057617 53.09692383 277.34057617 C53.09692383 270.41057617 53.09692383 263.48057617 53.09692383 256.34057617 C74.54692383 256.34057617 95.99692383 256.34057617 118.09692383 256.34057617 C118.09692383 263.27057617 118.09692383 270.20057617 118.09692383 277.34057617 C131.95692383 277.34057617 145.81692383 277.34057617 160.09692383 277.34057617 C161.01785046 249.69319812 161.01785046 249.69319812 147.53442383 226.52807617 C138.57076206 218.48376433 129.59472822 214.02167961 117.30078125 214.06591797 C116.55504349 214.06080704 115.80930573 214.05569611 115.04096985 214.0504303 C112.59469398 214.03661913 110.14870262 214.03748494 107.70239258 214.03979492 C105.98757321 214.03590272 104.2727548 214.03156698 102.55793762 214.02680969 C98.96958284 214.01936522 95.38132646 214.01962541 91.79296875 214.02490234 C87.2169428 214.03068797 82.6413228 214.01377936 78.06536388 213.99055767 C74.52466007 213.97575269 70.98405243 213.9749579 67.44332314 213.9780674 C65.75739044 213.97755736 64.07145191 213.9723799 62.38554955 213.96225548 C46.41241061 213.87811025 33.00248778 216.2886652 21.62426758 228.49682617 Z M11.09692383 320.34057617 C11.09692383 334.20057617 11.09692383 348.06057617 11.09692383 362.34057617 C95.57692383 362.34057617 180.05692383 362.34057617 267.09692383 362.34057617 C267.09692383 348.48057617 267.09692383 334.62057617 267.09692383 320.34057617 C182.61692383 320.34057617 98.13692383 320.34057617 11.09692383 320.34057617 Z M11.09692383 406.34057617 C11.09692383 420.20057617 11.09692383 434.06057617 11.09692383 448.34057617 C95.57692383 448.34057617 180.05692383 448.34057617 267.09692383 448.34057617 C267.09692383 434.48057617 267.09692383 420.62057617 267.09692383 406.34057617 C182.61692383 406.34057617 98.13692383 406.34057617 11.09692383 406.34057617 Z " fill="#000000" transform="translate(116.903076171875,-0.340576171875)"/>
<path d="M0 0 C3.52783312 1.76391656 5.23497519 2.98405941 7.93572998 5.6817627 C9.09250999 6.83008324 9.09250999 6.83008324 10.2726593 8.00160217 C11.1091954 8.84218674 11.94573151 9.6827713 12.80761719 10.54882812 C13.69577621 11.43348251 14.58393524 12.3181369 15.49900818 13.229599 C17.9301822 15.65348106 20.35677222 18.08177658 22.78112316 20.51247215 C25.31790625 23.05431961 27.85956627 25.59128288 30.40045166 28.12902832 C34.66429059 32.38923021 38.92389816 36.65362879 43.18115234 40.92041016 C48.10802742 45.85818323 53.04208513 50.7886911 57.9799087 55.71551371 C62.21718163 59.94372292 66.45055992 64.17580185 70.68068242 68.41116476 C73.20819889 70.94180419 75.73705895 73.47106113 78.26943207 75.99684143 C81.08867243 78.80925377 83.89972598 81.62975963 86.70996094 84.45117188 C87.55459396 85.29175644 88.39922699 86.132341 89.26945496 86.99839783 C90.02936234 87.76394485 90.78926971 88.52949188 91.57220459 89.3182373 C92.23807461 89.98486137 92.90394463 90.65148544 93.58999252 91.33831024 C95 93 95 93 95 95 C63.65 95 32.3 95 0 95 C0 63.65 0 32.3 0 0 Z " fill="#000000" transform="translate(362,12)"/>
</svg>
